<svg width="36" height="44" viewBox="0 0 36 44" fill="none" xmlns="http://www.w3.org/2000/svg">
    <g filter="url(#filter0_b_9066_47680)">
        <path
            d="M16.639 43.1225C17.5721 44.0555 19.0848 44.0555 20.0178 43.1225L32.7717 30.3686C36.9185 26.2218 36.9185 19.4985 32.7717 15.3517L18.9873 1.56723C18.3652 0.945212 17.3568 0.945212 16.7347 1.56723L3.4177 14.8843C-0.729105 19.0311 -0.729098 25.7544 3.4177 29.9012L16.639 43.1225Z"
            fill="url(#paint0_linear_9066_47680)" fill-opacity="0.2" />
    </g>
    <g filter="url(#filter1_b_9066_47680)">
        <path
            d="M16.4889 40.266C17.4219 41.1991 18.9346 41.1991 19.8677 40.266L31.1614 28.9723C35.3082 24.8255 35.3082 18.1022 31.1614 13.9554L18.8617 1.65572C18.2397 1.0337 17.2312 1.03371 16.6091 1.65573L4.7523 13.5126C0.605501 17.6594 0.605497 24.3827 4.7523 28.5295L16.4889 40.266Z"
            fill="url(#paint1_linear_9066_47680)" fill-opacity="0.2" />
    </g>
    <g filter="url(#filter2_b_9066_47680)">
        <path
            d="M16.3722 38.02C17.3053 38.953 18.818 38.953 19.751 38.02L30.3069 27.4641C34.4537 23.3173 34.4537 16.594 30.3069 12.4472L19.1879 1.32822C18.5659 0.706198 17.5574 0.706202 16.9354 1.32822L5.81638 12.4472C1.66958 16.594 1.66958 23.3173 5.81639 27.4641L16.3722 38.02Z"
            fill="url(#paint2_linear_9066_47680)" fill-opacity="0.2" />
    </g>
    <path
        d="M21.0251 40.1352L21.0116 40.1437L20.9994 40.1537C19.8627 41.0855 19.0444 41.5828 18.2664 41.6495C17.5098 41.7144 16.726 41.3743 15.6495 40.4358L6.1419 29.4225L6.13043 29.4092L6.11722 29.3977C2.85844 26.5483 1.44614 23.5078 1.65011 20.5208C1.85456 17.5266 3.68712 14.5194 7.06276 11.7524L7.063 11.7527L7.07308 11.7435L15.6356 3.90611C15.9196 3.67317 16.1837 3.44762 16.431 3.23643L16.4317 3.2358C16.681 3.02289 16.9123 2.82539 17.1329 2.64644C17.5771 2.28624 17.9615 2.01557 18.3321 1.85868C18.6947 1.70519 19.0414 1.6618 19.4195 1.75655C19.801 1.85214 20.2355 2.09365 20.761 2.55005L28.9189 13.0242L28.9462 13.0593L28.9838 13.0827C33.6045 15.9641 34.9696 19.2232 34.8359 22.0597C34.7011 24.9209 33.0393 27.4142 31.4926 28.7324C30.124 29.8988 28.6832 31.7378 27.2063 33.6231C26.9494 33.9509 26.6915 34.2801 26.4327 34.6074C24.6692 36.8376 22.8615 38.9836 21.0251 40.1352Z"
        stroke="white" stroke-opacity="0.1" stroke-width="0.5" />
    <g opacity="0.7" filter="url(#filter3_b_9066_47680)">
        <path
            d="M15.372 32.5171C16.8233 33.9684 19.1765 33.9684 20.6279 32.5171L26.1801 26.9649C31.3636 21.7814 31.3636 13.3772 26.1801 8.19374L19.1262 1.13985C18.5042 0.517835 17.4957 0.517835 16.8736 1.13985L9.81976 8.19374C4.63625 13.3772 4.63625 21.7814 9.81975 26.9649L15.372 32.5171Z"
            fill="url(#paint3_linear_9066_47680)" />
    </g>
    <defs>
        <filter id="filter0_b_9066_47680" x="-9.69238" y="-8.89941" width="55.5742" height="62.7217"
            filterUnits="userSpaceOnUse" color-interpolation-filters="sRGB">
            <feFlood flood-opacity="0" result="BackgroundImageFix" />
            <feGaussianBlur in="BackgroundImageFix" stdDeviation="5" />
            <feComposite in2="SourceAlpha" operator="in" result="effect1_backgroundBlur_9066_47680" />
            <feBlend mode="normal" in="SourceGraphic" in2="effect1_backgroundBlur_9066_47680"
                result="shape" />
        </filter>
        <filter id="filter1_b_9066_47680" x="-8.35791" y="-8.81104" width="52.6294" height="59.7769"
            filterUnits="userSpaceOnUse" color-interpolation-filters="sRGB">
            <feFlood flood-opacity="0" result="BackgroundImageFix" />
            <feGaussianBlur in="BackgroundImageFix" stdDeviation="5" />
            <feComposite in2="SourceAlpha" operator="in" result="effect1_backgroundBlur_9066_47680" />
            <feBlend mode="normal" in="SourceGraphic" in2="effect1_backgroundBlur_9066_47680"
                result="shape" />
        </filter>
        <filter id="filter2_b_9066_47680" x="-7.29395" y="-9.13818" width="50.7109" height="57.8579"
            filterUnits="userSpaceOnUse" color-interpolation-filters="sRGB">
            <feFlood flood-opacity="0" result="BackgroundImageFix" />
            <feGaussianBlur in="BackgroundImageFix" stdDeviation="5" />
            <feComposite in2="SourceAlpha" operator="in" result="effect1_backgroundBlur_9066_47680" />
            <feBlend mode="normal" in="SourceGraphic" in2="effect1_backgroundBlur_9066_47680"
                result="shape" />
        </filter>
        <filter id="filter3_b_9066_47680" x="-4.06787" y="-9.32666" width="44.1357" height="52.9321"
            filterUnits="userSpaceOnUse" color-interpolation-filters="sRGB">
            <feFlood flood-opacity="0" result="BackgroundImageFix" />
            <feGaussianBlur in="BackgroundImageFix" stdDeviation="5" />
            <feComposite in2="SourceAlpha" operator="in" result="effect1_backgroundBlur_9066_47680" />
            <feBlend mode="normal" in="SourceGraphic" in2="effect1_backgroundBlur_9066_47680"
                result="shape" />
        </filter>
        <linearGradient id="paint0_linear_9066_47680" x1="18.0947" y1="43.8223" x2="18.0947"
            y2="1.10071" gradientUnits="userSpaceOnUse">
            <stop stop-color="white" />
            <stop offset="0.57" stop-color="white" stop-opacity="0" />
        </linearGradient>
        <linearGradient id="paint1_linear_9066_47680" x1="17.9568" y1="40.9658" x2="17.9568"
            y2="1.18921" gradientUnits="userSpaceOnUse">
            <stop stop-color="white" />
            <stop offset="0.45" stop-color="white" stop-opacity="0" />
        </linearGradient>
        <linearGradient id="paint2_linear_9066_47680" x1="18.0616" y1="38.7197" x2="18.0616"
            y2="0.861704" gradientUnits="userSpaceOnUse">
            <stop stop-color="white" />
            <stop offset="0.805" stop-color="white" stop-opacity="0" />
        </linearGradient>
        <linearGradient id="paint3_linear_9066_47680" x1="17.9999" y1="33.6056" x2="17.9999"
            y2="0.67334" gradientUnits="userSpaceOnUse">
            <stop offset="0.5" stop-color="white" />
            <stop offset="1" stop-color="white" stop-opacity="0" />
        </linearGradient>
    </defs>
</svg>
