<svg width="44" height="37" viewBox="0 0 44 37" fill="none" xmlns="http://www.w3.org/2000/svg">
    <g filter="url(#filter0_b_9066_47673)">
        <path
            d="M1.31403 16.8866C0.381003 17.8196 0.381002 19.3324 1.31403 20.2654L14.0679 33.0193C18.2147 37.1661 24.938 37.1661 29.0848 33.0193L42.8693 19.2348C43.4913 18.6128 43.4913 17.6043 42.8693 16.9823L29.5523 3.66526C25.4055 -0.481545 18.6822 -0.481538 14.5354 3.66526L1.31403 16.8866Z"
            fill="url(#paint0_linear_9066_47673)" fill-opacity="0.2" />
    </g>
    <g filter="url(#filter1_b_9066_47673)">
        <path
            d="M4.17048 16.7364C3.23745 17.6695 3.23745 19.1822 4.17048 20.1152L15.4642 31.4089C19.611 35.5557 26.3343 35.5557 30.4811 31.4089L42.7808 19.1092C43.4028 18.4872 43.4028 17.4787 42.7808 16.8567L30.924 4.99986C26.7772 0.853061 20.0539 0.853056 15.907 4.99986L4.17048 16.7364Z"
            fill="url(#paint1_linear_9066_47673)" fill-opacity="0.2" />
    </g>
    <g filter="url(#filter2_b_9066_47673)">
        <path
            d="M6.41657 16.6198C5.48354 17.5528 5.48354 19.0656 6.41657 19.9986L16.9724 30.5545C21.1192 34.7013 27.8425 34.7012 31.9893 30.5544L43.1083 19.4355C43.7303 18.8134 43.7303 17.8049 43.1083 17.1829L31.9893 6.06394C27.8425 1.91714 21.1192 1.91714 16.9724 6.06395L6.41657 16.6198Z"
            fill="url(#paint2_linear_9066_47673)" fill-opacity="0.2" />
    </g>
    <path
        d="M4.30128 21.2726L4.29287 21.2592L4.28283 21.247C3.35107 20.1102 2.85375 19.292 2.78703 18.514C2.72214 17.7574 3.06226 16.9736 4.00074 15.897L15.014 6.38946L15.0273 6.37799L15.0388 6.36478C17.8882 3.106 20.9287 1.6937 23.9157 1.89767C26.9099 2.10212 29.9171 3.93467 32.6841 7.31032L32.6838 7.31056L32.693 7.32063L40.5304 15.8831C40.7634 16.1672 40.9889 16.4313 41.2001 16.6786L41.2007 16.6793C41.4136 16.9286 41.6111 17.1598 41.7901 17.3805C42.1503 17.8247 42.421 18.209 42.5778 18.5797C42.7313 18.9423 42.7747 19.289 42.68 19.6671C42.5844 20.0486 42.3429 20.4831 41.8865 21.0086L31.4123 29.1664L31.3773 29.1937L31.3538 29.2314C28.4725 33.852 25.2134 35.2171 22.3769 35.0835C19.5157 34.9487 17.0223 33.2869 15.7042 31.7402C14.5378 30.3716 12.6987 28.9308 10.8135 27.4538C10.4856 27.197 10.1564 26.9391 9.82909 26.6803C7.59894 24.9168 5.45292 23.109 4.30128 21.2726Z"
        stroke="white" stroke-opacity="0.1" stroke-width="0.5" />
    <g filter="url(#filter3_b_9066_47673)">
        <path
            d="M11.319 20.4648C9.86762 19.0134 9.86762 16.6602 11.319 15.2089L16.8712 9.65667C22.0547 4.47317 30.4588 4.47317 35.6423 9.65667L42.6962 16.7106C43.3182 17.3326 43.3182 18.3411 42.6962 18.9631L35.6423 26.017C30.4588 31.2005 22.0547 31.2005 16.8712 26.017L11.319 20.4648Z"
            fill="url(#paint3_linear_9066_47673)" />
    </g>
    <defs>
        <filter id="filter0_b_9066_47673" x="-9.38574" y="-9.44482" width="62.7217" height="55.5742"
            filterUnits="userSpaceOnUse" color-interpolation-filters="sRGB">
            <feFlood flood-opacity="0" result="BackgroundImageFix" />
            <feGaussianBlur in="BackgroundImageFix" stdDeviation="5" />
            <feComposite in2="SourceAlpha" operator="in" result="effect1_backgroundBlur_9066_47673" />
            <feBlend mode="normal" in="SourceGraphic" in2="effect1_backgroundBlur_9066_47673"
                result="shape" />
        </filter>
        <filter id="filter1_b_9066_47673" x="-6.5293" y="-8.11035" width="59.7769" height="52.6294"
            filterUnits="userSpaceOnUse" color-interpolation-filters="sRGB">
            <feFlood flood-opacity="0" result="BackgroundImageFix" />
            <feGaussianBlur in="BackgroundImageFix" stdDeviation="5" />
            <feComposite in2="SourceAlpha" operator="in" result="effect1_backgroundBlur_9066_47673" />
            <feBlend mode="normal" in="SourceGraphic" in2="effect1_backgroundBlur_9066_47673"
                result="shape" />
        </filter>
        <filter id="filter2_b_9066_47673" x="-4.2832" y="-7.04639" width="57.8579" height="50.7109"
            filterUnits="userSpaceOnUse" color-interpolation-filters="sRGB">
            <feFlood flood-opacity="0" result="BackgroundImageFix" />
            <feGaussianBlur in="BackgroundImageFix" stdDeviation="5" />
            <feComposite in2="SourceAlpha" operator="in" result="effect1_backgroundBlur_9066_47673" />
            <feBlend mode="normal" in="SourceGraphic" in2="effect1_backgroundBlur_9066_47673"
                result="shape" />
        </filter>
        <filter id="filter3_b_9066_47673" x="0.230469" y="-4.23096" width="52.9321" height="44.1357"
            filterUnits="userSpaceOnUse" color-interpolation-filters="sRGB">
            <feFlood flood-opacity="0" result="BackgroundImageFix" />
            <feGaussianBlur in="BackgroundImageFix" stdDeviation="5" />
            <feComposite in2="SourceAlpha" operator="in" result="effect1_backgroundBlur_9066_47673" />
            <feBlend mode="normal" in="SourceGraphic" in2="effect1_backgroundBlur_9066_47673"
                result="shape" />
        </filter>
        <linearGradient id="paint0_linear_9066_47673" x1="0.61426" y1="18.3423" x2="43.3358"
            y2="18.3423" gradientUnits="userSpaceOnUse">
            <stop stop-color="white" />
            <stop offset="0.57" stop-color="white" stop-opacity="0" />
        </linearGradient>
        <linearGradient id="paint1_linear_9066_47673" x1="3.47071" y1="18.2044" x2="43.2473"
            y2="18.2044" gradientUnits="userSpaceOnUse">
            <stop stop-color="white" />
            <stop offset="0.45" stop-color="white" stop-opacity="0" />
        </linearGradient>
        <linearGradient id="paint2_linear_9066_47673" x1="5.7168" y1="18.3092" x2="43.5748"
            y2="18.3092" gradientUnits="userSpaceOnUse">
            <stop stop-color="white" />
            <stop offset="0.805" stop-color="white" stop-opacity="0" />
        </linearGradient>
        <linearGradient id="paint3_linear_9066_47673" x1="44.7021" y1="19.0001" x2="10.2021"
            y2="18.0001" gradientUnits="userSpaceOnUse">
            <stop stop-color="white" stop-opacity="0" />
            <stop offset="0.529617" stop-color="white" />
        </linearGradient>
    </defs>
</svg>
